<svg version="1.1" id="Layer_1" xmlns="http://www.w3.org/2000/svg" xmlns:xlink="http://www.w3.org/1999/xlink" x="0px" y="0px"
	 width="100%" viewBox="0 0 164 162" enable-background="new 0 0 164 162" xml:space="preserve">
<path fill="#FCFDFE" opacity="1.000000" stroke="none" 
	d="
M1.000000,63.000000 
	C1.000000,42.000008 1.000000,21.500011 1.000000,1.000014 
	C55.666645,1.000009 110.333290,1.000009 164.999954,1.000005 
	C164.999969,54.999958 164.999969,108.999916 164.999985,162.999908 
	C110.333389,162.999939 55.666775,162.999939 1.000082,162.999969 
	C1.000000,129.833328 1.000000,96.666664 1.000000,63.000000 
M86.499718,126.423798 
	C91.497665,126.421974 96.582932,126.993187 101.467758,126.248924 
	C105.900398,125.573555 110.779251,124.367752 114.278419,121.789993 
	C120.385719,117.290909 121.936119,109.034325 119.314453,102.394318 
	C116.554100,95.403053 110.419441,91.099258 102.645180,91.038361 
	C89.818192,90.937874 76.986687,91.182106 64.162987,90.951958 
	C47.256847,90.648544 33.450703,79.606880 29.996393,64.015068 
	C26.525009,48.346191 33.822392,32.685661 48.970715,25.571177 
	C54.185215,23.122158 60.483105,22.111252 66.315407,22.001484 
	C87.897514,21.595297 109.491867,21.839840 132.484940,21.839840 
	C129.779449,19.814354 128.178497,18.484661 126.452629,17.343941 
	C108.712517,5.618450 89.331413,1.474671 68.350647,4.925955 
	C14.435928,13.794787 -14.161255,75.639771 13.831643,122.656616 
	C15.468483,125.405861 17.225409,126.532951 20.528622,126.508003 
	C42.184654,126.344398 63.842518,126.424004 86.499718,126.423798 
M160.764130,80.620392 
	C160.281006,66.536713 156.702713,53.351482 149.049408,41.441593 
	C148.248520,40.195274 146.304718,38.949249 144.885635,38.942905 
	C117.397987,38.820026 89.908432,38.776047 62.422703,39.054123 
	C59.345406,39.085258 55.876831,40.576038 53.303001,42.397724 
	C46.683628,47.082726 44.534515,54.430450 46.893967,61.800262 
	C49.293110,69.294060 55.579330,73.909416 63.901119,73.972778 
	C76.561905,74.069183 89.226906,73.825783 101.884811,74.040245 
	C126.120827,74.450890 142.730591,96.530426 135.749832,118.828232 
	C130.983353,134.053207 118.256287,143.012909 100.674652,143.127975 
	C79.184319,143.268631 57.692379,143.158936 36.201153,143.177795 
	C35.031704,143.178818 33.862419,143.366592 31.537586,143.567078 
	C56.935966,162.336044 83.755142,167.039703 111.664772,155.408691 
	C143.818832,142.008865 159.966293,116.517242 160.764130,80.620392 
z"/>
<path fill="#02A0E8" opacity="1.000000" stroke="none" 
	d="
M85.999756,126.423996 
	C63.842518,126.424004 42.184654,126.344398 20.528622,126.508003 
	C17.225409,126.532951 15.468483,125.405861 13.831643,122.656616 
	C-14.161255,75.639771 14.435928,13.794787 68.350647,4.925955 
	C89.331413,1.474671 108.712517,5.618450 126.452629,17.343941 
	C128.178497,18.484661 129.779449,19.814354 132.484940,21.839840 
	C109.491867,21.839840 87.897514,21.595297 66.315407,22.001484 
	C60.483105,22.111252 54.185215,23.122158 48.970715,25.571177 
	C33.822392,32.685661 26.525009,48.346191 29.996393,64.015068 
	C33.450703,79.606880 47.256847,90.648544 64.162987,90.951958 
	C76.986687,91.182106 89.818192,90.937874 102.645180,91.038361 
	C110.419441,91.099258 116.554100,95.403053 119.314453,102.394318 
	C121.936119,109.034325 120.385719,117.290909 114.278419,121.789993 
	C110.779251,124.367752 105.900398,125.573555 101.467758,126.248924 
	C96.582932,126.993187 91.497665,126.421974 85.999756,126.423996 
z"/>
<path fill="#353535" opacity="1.000000" stroke="none" 
	d="
M160.764084,81.081520 
	C159.966293,116.517242 143.818832,142.008865 111.664772,155.408691 
	C83.755142,167.039703 56.935966,162.336044 31.537586,143.567078 
	C33.862419,143.366592 35.031704,143.178818 36.201153,143.177795 
	C57.692379,143.158936 79.184319,143.268631 100.674652,143.127975 
	C118.256287,143.012909 130.983353,134.053207 135.749832,118.828232 
	C142.730591,96.530426 126.120827,74.450890 101.884811,74.040245 
	C89.226906,73.825783 76.561905,74.069183 63.901119,73.972778 
	C55.579330,73.909416 49.293110,69.294060 46.893967,61.800262 
	C44.534515,54.430450 46.683628,47.082726 53.303001,42.397724 
	C55.876831,40.576038 59.345406,39.085258 62.422703,39.054123 
	C89.908432,38.776047 117.397987,38.820026 144.885635,38.942905 
	C146.304718,38.949249 148.248520,40.195274 149.049408,41.441593 
	C156.702713,53.351482 160.281006,66.536713 160.764084,81.081520 
z"/>
</svg>